<svg width="50" height="50" viewBox="0 0 50 50" fill="none" xmlns="http://www.w3.org/2000/svg">
<circle cx="25" cy="25" r="24" stroke="#7073BC" stroke-width="2"/>
<line x1="25" y1="14" x2="25" y2="38" stroke="#7073BC" stroke-width="2"/>
<line x1="13" y1="26" x2="37" y2="26" stroke="#7073BC" stroke-width="2"/>
<path d="M36 26C36 25.4477 36.4477 25 37 25V25C37.5523 25 38 25.4477 38 26V26C38 26.5523 37.5523 27 37 27V27C36.4477 27 36 26.5523 36 26V26Z" fill="#7073BC"/>
<path d="M36 26C36 25.4477 36.4477 25 37 25C37.5523 25 38 25.4477 38 26C38 26.5523 37.5523 27 37 27C36.4477 27 36 26.5523 36 26Z" fill="#7073BC"/>
<path d="M24 14C24 13.4477 24.4477 13 25 13V13C25.5523 13 26 13.4477 26 14V14C26 14.5523 25.5523 15 25 15V15C24.4477 15 24 14.5523 24 14V14Z" fill="#7073BC"/>
<path d="M24 14C24 13.4477 24.4477 13 25 13C25.5523 13 26 13.4477 26 14C26 14.5523 25.5523 15 25 15C24.4477 15 24 14.5523 24 14Z" fill="#7073BC"/>
<path d="M24 38C24 37.4477 24.4477 37 25 37V37C25.5523 37 26 37.4477 26 38V38C26 38.5523 25.5523 39 25 39V39C24.4477 39 24 38.5523 24 38V38Z" fill="#7073BC"/>
<path d="M24 38C24 37.4477 24.4477 37 25 37C25.5523 37 26 37.4477 26 38C26 38.5523 25.5523 39 25 39C24.4477 39 24 38.5523 24 38Z" fill="#7073BC"/>
<rect x="12" y="25" width="2" height="2" rx="1" fill="#7073BC"/>
</svg>
