<svg width="35" height="35" viewBox="0 0 35 35" fill="none" xmlns="http://www.w3.org/2000/svg">
<path d="M17.5 0C7.83508 0 0 7.83508 0 17.5C0 27.1655 7.83508 35 17.5 35C27.1655 35 35 27.1655 35 17.5C35 7.83508 27.1655 0 17.5 0ZM17.5 32.847C9.0568 32.847 2.1875 25.9432 2.1875 17.4999C2.1875 9.05673 9.0568 2.18743 17.5 2.18743C25.9432 2.18743 32.8125 9.05676 32.8125 17.4999C32.8125 25.9431 25.9432 32.847 17.5 32.847ZM23.6868 11.3132C23.2597 10.8861 22.5673 10.8861 22.1402 11.3132L17.5 15.9534L12.8598 11.3132C12.4327 10.8861 11.7403 10.8861 11.3127 11.3132C10.8855 11.7403 10.8855 12.4327 11.3127 12.8598L15.9529 17.5L11.3127 22.1402C10.8855 22.5668 10.8855 23.2603 11.3127 23.6868C11.7398 24.1139 12.4321 24.1139 12.8598 23.6868L17.5 19.0466L22.1402 23.6868C22.5673 24.1139 23.2597 24.1139 23.6868 23.6868C24.1139 23.2603 24.1139 22.5668 23.6868 22.1402L19.0466 17.5L23.6868 12.8598C24.1145 12.4321 24.1145 11.7398 23.6868 11.3132V11.3132Z" fill="#7073BC"/>
</svg>
