<svg width="20" height="25" viewBox="0 0 20 25" fill="none" xmlns="http://www.w3.org/2000/svg">
<path d="M17.9791 5.8285L15.5139 4.65769L15.6417 4.3886C16.201 3.21092 15.6979 1.79768 14.5202 1.23828L12.3969 0.229874C11.8265 -0.0411541 11.1847 -0.0735472 10.5896 0.138152C9.99454 0.349939 9.51762 0.78082 9.24668 1.35131L9.11887 1.6204L6.65365 0.449495C5.36383 -0.16298 3.81582 0.388054 3.20309 1.67788L2.57195 3.00652C2.47178 3.21743 2.45954 3.4595 2.5378 3.67938C2.61614 3.89936 2.77854 4.07919 2.98945 4.17936L9.52246 7.28223H0.880204C0.633999 7.28223 0.399149 7.38531 0.232519 7.56646C0.0658001 7.7477 -0.0173832 7.9903 0.0030385 8.23563L1.15995 22.1176C1.29462 23.7339 2.67062 25 4.29257 25H10.7659C12.3877 25 13.7638 23.7339 13.8984 22.1176L14.9211 9.8463L17.4038 11.0255C17.5257 11.0834 17.6543 11.1108 17.7808 11.1108C18.1101 11.1108 18.4259 10.9252 18.5766 10.608L19.2076 9.27942C19.82 7.98924 19.269 6.44124 17.9791 5.8285ZM10.8369 2.10656C10.9061 1.96088 11.0279 1.85085 11.1799 1.79662C11.3321 1.74258 11.4959 1.75076 11.6416 1.82013L13.7648 2.82845C14.0657 2.9714 14.1942 3.33248 14.0513 3.63335L13.9235 3.90244L10.709 2.37574L10.8369 2.10656ZM12.1438 21.9713C12.0846 22.6823 11.4792 23.2393 10.7658 23.2393H4.29248C3.57895 23.2393 2.9736 22.6823 2.91436 21.9713L1.83694 9.04263H13.2213L12.1438 21.9713ZM17.6171 8.52391L17.3638 9.05733L4.53991 2.96656L4.79334 2.43304C4.98954 2.01977 5.48548 1.84345 5.8984 2.03966L17.2237 7.41867C17.6369 7.61496 17.8134 8.11081 17.6171 8.52391Z" fill="#EA9617"/>
</svg>
