<svg width="25" height="25" viewBox="0 0 25 25" fill="none" xmlns="http://www.w3.org/2000/svg">
<path d="M12.4998 0C5.60706 0 0 5.6075 0 12.5C0 19.3925 5.60706 25 12.4998 25C19.3924 25 25 19.3925 25 12.5C25 5.6075 19.3924 0 12.4998 0ZM12.4998 23.3606C6.51125 23.3606 1.63937 18.4885 1.63937 12.5C1.63937 6.51144 6.51119 1.63944 12.4998 1.63944C18.4883 1.63944 23.3604 6.5115 23.3604 12.5C23.3605 18.4885 18.4883 23.3606 12.4998 23.3606Z" fill="#15D728"/>
<path d="M17.0254 8.40787L10.5797 14.8532L7.97413 12.2482C7.65394 11.9284 7.13525 11.9282 6.81506 12.2484C6.49475 12.5687 6.49475 13.0875 6.81506 13.4077L10.0003 16.5924C10.1603 16.7522 10.37 16.8322 10.5797 16.8322C10.7894 16.8322 10.9996 16.7522 11.1596 16.5921C11.1601 16.5914 11.1605 16.5907 11.1613 16.5899L18.1844 9.56694C18.5047 9.24694 18.5047 8.72781 18.1844 8.40781C17.8643 8.08762 17.3452 8.08762 17.0254 8.40787Z" fill="#15D728"/>
</svg>
