<svg width="10" height="25" viewBox="0 0 10 25" fill="none" xmlns="http://www.w3.org/2000/svg">
<path d="M4.84512 18.7476C6.57163 18.7476 7.9713 20.1473 7.9713 21.8738C7.9713 23.6003 6.57163 25 4.84512 25C3.1186 25 1.71892 23.6003 1.71892 21.8738C1.71892 20.1473 3.1186 18.7476 4.84512 18.7476ZM4.84387 0C7.51907 0 9.68781 2.16869 9.68781 4.84391C9.68781 8.38552 8.45039 13.0359 7.76868 15.3405C7.38171 16.6484 6.17716 17.5007 4.84587 17.5007C3.5117 17.5007 2.30585 16.6448 1.92024 15.3345L1.64219 14.363C0.94874 11.8705 0 7.91033 0 4.84391C0 2.16869 2.16869 0 4.84387 0Z" fill="#C80E0E"/>
</svg>
