<svg width="35" height="35" viewBox="0 0 35 35" fill="none" xmlns="http://www.w3.org/2000/svg">
<path d="M10.2083 20.4167C11.8192 20.4167 13.125 19.1109 13.125 17.5C13.125 15.8891 11.8192 14.5833 10.2083 14.5833C8.5975 14.5833 7.29167 15.8891 7.29167 17.5C7.29167 19.1109 8.5975 20.4167 10.2083 20.4167Z" fill="#7073BC"/>
<path d="M20.4167 17.5C20.4167 19.1109 19.1109 20.4167 17.5 20.4167C15.8891 20.4167 14.5833 19.1109 14.5833 17.5C14.5833 15.8891 15.8891 14.5833 17.5 14.5833C19.1109 14.5833 20.4167 15.8891 20.4167 17.5Z" fill="#7073BC"/>
<path d="M24.7917 20.4167C26.4025 20.4167 27.7083 19.1109 27.7083 17.5C27.7083 15.8891 26.4025 14.5833 24.7917 14.5833C23.1808 14.5833 21.875 15.8891 21.875 17.5C21.875 19.1109 23.1808 20.4167 24.7917 20.4167Z" fill="#7073BC"/>
<path fill-rule="evenodd" clip-rule="evenodd" d="M35 17.5C35 27.165 27.165 35 17.5 35C7.83501 35 0 27.165 0 17.5C0 7.83501 7.83501 0 17.5 0C27.165 0 35 7.83501 35 17.5ZM32.0833 17.5C32.0833 25.5541 25.5541 32.0833 17.5 32.0833C9.44584 32.0833 2.91667 25.5541 2.91667 17.5C2.91667 9.44584 9.44584 2.91667 17.5 2.91667C25.5541 2.91667 32.0833 9.44584 32.0833 17.5Z" fill="#7073BC"/>
</svg>
