<svg width="30" height="30" viewBox="0 0 30 30" fill="none" xmlns="http://www.w3.org/2000/svg">
<path d="M14.8761 19.9981C16.2573 19.9981 17.377 21.1178 17.377 22.4991C17.377 23.8803 16.2573 25 14.8761 25C13.4949 25 12.3751 23.8803 12.3751 22.4991C12.3751 21.1178 13.4949 19.9981 14.8761 19.9981ZM14.8751 5C17.0153 5 18.7503 6.73495 18.7503 8.87513C18.7503 11.7084 17.7603 15.4287 17.2149 17.2724C16.9054 18.3187 15.9417 19.0006 14.8767 19.0006C13.8094 19.0006 12.8447 18.3158 12.5362 17.2676L12.3138 16.4904C11.759 14.4964 11 11.3283 11 8.87513C11 6.73495 12.7349 5 14.8751 5Z" fill="#939393"/>
<circle cx="15" cy="15" r="14.5" stroke="#939393"/>
</svg>
